<svg width="600" height="600" viewBox="0 0 600 600" fill="none" xmlns="http://www.w3.org/2000/svg">
<path opacity="0.997" fill-rule="evenodd" clip-rule="evenodd" d="M433.653 61.757C482.894 56.6711 515.953 77.2128 532.828 123.38C539.571 155.757 530.264 182.397 504.905 203.297C423.919 250.916 366.467 318.636 332.553 406.46C317.662 449.976 306.748 494.267 299.816 539.335C297.89 538.051 295.964 536.768 294.039 535.484C258.79 408.33 270.345 285.726 328.702 167.671C347.04 133.267 371.112 103.418 400.916 78.1256C411.469 71.5647 422.382 66.1091 433.653 61.757Z" fill="#03B8E6"/>
<path opacity="0.97" fill-rule="evenodd" clip-rule="evenodd" d="M90.8742 94.5022C108.552 92.5881 124.599 96.7611 139.017 107.019C213.194 178.048 244.646 264.705 233.377 366.991C230.905 368.309 228.657 367.987 226.637 366.029C218.464 349.194 211.403 332.504 205.454 315.96C185.028 281.32 158.39 250.83 125.537 224.488C107.293 213.756 88.6773 203.486 69.6913 193.677C40.5109 165.968 39.2271 137.082 65.8399 107.019C73.8451 101.733 82.19 97.5603 90.8742 94.5022Z" fill="#F4A01D"/>
<path opacity="0.971" fill-rule="evenodd" clip-rule="evenodd" d="M17.6969 394.902C17.055 392.976 15.7712 391.692 13.8455 391.05C-2.19595 362.348 3.5812 338.276 31.1769 318.836C53.1383 309.704 74.9633 310.347 96.6513 320.762C144.777 347.335 182.97 384.245 211.231 431.491C218.464 443.573 222.959 456.409 224.711 470.005C223.914 470.885 222.951 471.528 221.823 471.931C169.399 434.277 110.985 414.698 46.5826 413.196C34.6376 410.523 25.009 404.425 17.6969 394.902Z" fill="#6DBB54"/>
<path opacity="0.991" fill-rule="evenodd" clip-rule="evenodd" d="M520.311 416.09C513.86 415.772 507.441 416.094 501.054 417.053C496.29 417.124 492.438 418.728 489.499 421.867C450.577 431.665 414.31 448.356 380.696 471.936C377.067 471.239 375.46 468.992 375.882 465.196C399.605 408.073 437.476 362.499 489.499 328.47C509.646 316.19 531.472 311.056 554.974 313.064C588.293 324.162 600.81 346.949 592.525 381.427C584.056 400.272 569.613 411.507 549.197 415.127C539.589 416.088 529.961 416.41 520.311 416.09Z" fill="#1689C8"/>
</svg>
