<svg width="1100" height="255" viewBox="0 0 1100 255" fill="none" xmlns="http://www.w3.org/2000/svg">
<path opacity="0.122" fill-rule="evenodd" clip-rule="evenodd" d="M855.664 15.0859C855.664 72.276 855.664 129.465 855.664 186.655C862.692 186.655 869.722 186.655 876.751 186.655C876.479 187.411 876 188.051 875.313 188.572C868.978 187.687 862.429 187.367 855.664 187.614C854.388 129.946 854.388 72.437 855.664 15.0859Z" fill="white"/>
<path opacity="0.976" fill-rule="evenodd" clip-rule="evenodd" d="M876.751 186.656C869.722 186.656 862.693 186.656 855.664 186.656C855.664 129.466 855.664 72.2768 855.664 15.0867C862.759 13.8148 869.947 13.8148 877.23 15.0867C877.709 48.3127 877.869 81.5406 877.709 114.769C882.861 115.084 887.973 114.765 893.045 113.811C902.999 101.303 912.584 88.5222 921.8 75.4715C929.762 74.5149 937.749 74.1957 945.762 74.513C934.96 91.5731 923.134 108.026 910.298 123.875C923.412 144.652 936.512 165.42 949.596 186.177C949.28 186.656 948.954 187.135 948.637 187.614C942.158 188.122 935.611 188.443 928.988 188.573C927.966 187.911 926.847 187.431 925.634 187.135C914.96 169.914 904.097 152.821 893.045 135.856C887.973 134.902 882.861 134.583 877.709 134.898C878.026 152.317 877.706 169.57 876.751 186.656Z" fill="white"/>
<path opacity="0.122" fill-rule="evenodd" clip-rule="evenodd" d="M971.642 15.0859C971.642 63.3295 971.642 111.574 971.642 159.818C970.923 158.829 970.281 157.711 969.725 156.463C969.725 110.455 969.725 64.448 969.725 18.4406C970.281 17.1927 970.923 16.0741 971.642 15.0859Z" fill="white"/>
<path opacity="0.953" fill-rule="evenodd" clip-rule="evenodd" d="M971.64 159.817C971.64 111.574 971.64 63.3291 971.64 15.0856C978.809 14.1348 986.161 13.8156 993.685 14.1271C993.522 62.0524 993.685 109.977 994.164 157.9C997.078 164.081 1002.03 167.276 1009.02 167.485C1010.1 173.826 1010.26 180.216 1009.5 186.655C1007.9 187.294 1006.31 187.932 1004.71 188.572C994.979 187.94 986.19 184.745 978.349 178.987C973.471 173.544 971.237 167.154 971.64 159.817Z" fill="white"/>
<path opacity="0.947" fill-rule="evenodd" clip-rule="evenodd" d="M678.344 24.6723C688.426 24.0512 694.497 28.6835 696.555 38.5703C693.428 51.5387 685.76 55.3726 673.552 50.0722C667.199 44.1832 666.081 37.6329 670.197 30.4232C672.757 28.1209 675.473 26.2039 678.344 24.6723Z" fill="white"/>
<path opacity="0.96" fill-rule="evenodd" clip-rule="evenodd" d="M395.59 70.6797C407.855 71.8577 419.036 76.0108 429.137 83.14C430.175 83.9691 430.334 84.9276 429.616 86.0155C426.715 90.4993 423.52 94.6524 420.031 98.4758C413.357 95.5055 406.488 93.1093 399.424 91.2872C390.753 89.652 383.565 92.0482 377.858 98.4758C375.405 105.175 377.162 110.446 383.13 114.291C390.888 118.049 398.876 121.244 407.092 123.876C414.872 127.203 421.74 131.836 427.699 137.774C437.78 156.545 434.106 172.041 416.677 184.26C394.023 193.316 372.936 190.601 353.416 176.113C352.349 174.941 352.189 173.663 352.937 172.279C355.984 168.09 359.019 163.936 362.043 159.819C375.7 169.36 390.397 171.756 406.133 167.008C411.876 162.263 412.994 156.672 409.488 150.234C406.859 148.041 404.142 145.964 401.341 144.004C392.788 140.621 384.162 137.426 375.462 134.419C355.393 123.661 350.121 107.846 359.647 86.974C366.522 78.593 375.148 73.8005 385.526 72.5967C388.979 71.988 392.334 71.3487 395.59 70.6797Z" fill="white"/>
<path opacity="0.974" fill-rule="evenodd" clip-rule="evenodd" d="M516.361 70.6797C545.956 74.5596 562.09 91.4923 564.764 121.48C567.082 140.587 562.609 157.84 551.346 173.238C534.613 190.322 515.284 193.997 493.357 184.26C489.044 181.225 485.37 177.551 482.335 173.238C482.015 198.159 481.695 223.079 481.376 248C473.951 247.059 466.443 246.739 458.852 247.041C458.852 189.532 458.852 132.023 458.852 74.5136C465.88 74.5136 472.91 74.5136 479.938 74.5136C479.779 79.6358 479.939 84.7474 480.418 89.8494C489.684 78.269 501.665 71.8788 516.361 70.6797ZM508.693 91.7664C519.155 91.8067 527.941 95.6406 535.051 103.268C544.203 120.7 544.522 138.272 536.01 155.985C525.961 168.872 513.341 172.227 498.15 166.049C485.991 157.242 480.559 145.261 481.855 130.106C480.432 109.278 489.377 96.4985 508.693 91.7664Z" fill="white"/>
<path opacity="0.961" fill-rule="evenodd" clip-rule="evenodd" d="M784.736 70.6797C808.769 71.549 821.709 84.0094 823.555 108.061C824.034 134.577 824.194 161.095 824.034 187.615C816.366 187.615 808.698 187.615 801.03 187.615C800.978 163.679 800.978 140.036 801.03 116.687C800.379 111.486 799.261 106.374 797.675 101.351C794.247 96.6748 789.615 93.7994 783.777 92.7249C762.046 93.4917 749.106 104.994 744.959 127.23C744.479 147.356 744.319 167.484 744.479 187.615C737.127 187.93 730.097 187.93 723.393 187.615C722.434 149.92 722.115 112.22 722.434 74.5136C729.491 74.1964 736.521 74.5165 743.521 75.4721C743.448 82.1969 743.607 88.9063 744 95.6004C749.124 85.6858 756.952 78.8163 767.483 74.9929C773.145 72.6254 778.896 71.1877 784.736 70.6797Z" fill="white"/>
<path opacity="0.973" fill-rule="evenodd" clip-rule="evenodd" d="M1094.33 71.6367C1094.92 71.7431 1095.4 72.0623 1095.76 72.5952C1096.24 80.2564 1096.41 87.9243 1096.24 95.5989C1078.07 96.9935 1065.76 106.259 1059.34 123.395C1057.78 127.737 1056.82 132.209 1056.47 136.814C1056.3 153.437 1055.82 170.05 1055.03 186.655C1048.73 187.156 1042.5 187.477 1036.34 187.614C1035.38 186.974 1034.42 186.336 1033.46 185.697C1032.98 148.317 1032.82 110.936 1032.98 73.5537C1040.33 73.3946 1047.69 73.5537 1055.03 74.0329C1055.81 81.465 1056.29 88.9738 1056.47 96.5574C1065.5 82.852 1078.12 74.5448 1094.33 71.6367Z" fill="white"/>
<path opacity="0.965" fill-rule="evenodd" clip-rule="evenodd" d="M643.839 73.5547C646.075 73.5547 648.312 73.5547 650.548 73.5547C650.707 80.9101 650.548 88.2588 650.069 95.5999C627.251 98.9326 614.152 112.351 610.771 135.856C610.292 153.106 610.132 170.359 610.292 187.615C603.185 188.175 596.156 188.175 589.205 187.615C588.247 149.919 587.927 112.219 588.247 74.5132C595.519 74.2122 602.707 74.5314 609.813 75.4717C610.387 83.2143 610.387 90.8822 609.813 98.4754C618.034 85.8262 629.376 77.5199 643.839 73.5547Z" fill="white"/>
<path opacity="0.989" fill-rule="evenodd" clip-rule="evenodd" d="M670.677 74.5156C678.026 74.5156 685.374 74.5156 692.722 74.5156C693.042 112.222 692.722 149.922 691.764 187.617C691.202 187.817 690.723 188.138 690.326 188.576C683.793 188.634 677.403 188.314 671.156 187.617C670.677 149.918 670.517 112.218 670.677 74.5156Z" fill="white"/>
<path opacity="0.997" fill-rule="evenodd" clip-rule="evenodd" d="M216.353 8.37677C240.862 5.8454 257.316 16.0696 265.715 39.0484C269.072 55.1634 264.44 68.4231 251.817 78.8256C211.508 102.527 182.913 136.233 166.033 179.946C158.621 201.605 153.189 223.65 149.738 246.082C148.78 245.442 147.821 244.804 146.863 244.165C129.319 180.877 135.07 119.853 164.116 61.0936C173.243 43.9692 185.224 29.1127 200.059 16.5239C205.311 13.2583 210.743 10.5429 216.353 8.37677Z" fill="#03B8E6"/>
<path opacity="0.97" fill-rule="evenodd" clip-rule="evenodd" d="M45.7423 24.6739C54.541 23.7212 62.5283 25.7982 69.7045 30.9041C106.624 66.2569 122.279 109.389 116.67 160.3C115.44 160.956 114.321 160.795 113.316 159.821C109.248 151.442 105.733 143.134 102.772 134.9C92.6057 117.659 79.3469 102.483 62.9951 89.3718C53.9143 84.0302 44.6489 78.9186 35.199 74.036C20.675 60.2443 20.036 45.867 33.282 30.9041C37.2664 28.273 41.4199 26.196 45.7423 24.6739Z" fill="#F4A01D"/>
<path opacity="0.971" fill-rule="evenodd" clip-rule="evenodd" d="M9.31963 174.193C9.00016 173.235 8.36114 172.596 7.40265 172.276C-0.581644 157.99 2.29382 146.009 16.029 136.333C26.9599 131.788 37.8228 132.108 48.6176 137.292C72.5712 150.518 91.5808 168.889 105.648 192.405C109.248 198.418 111.485 204.808 112.357 211.574C111.96 212.012 111.481 212.333 110.919 212.533C84.8264 193.792 55.7521 184.047 23.6969 183.299C17.7515 181.969 12.9591 178.933 9.31963 174.193Z" fill="#6DBB54"/>
<path opacity="0.991" fill-rule="evenodd" clip-rule="evenodd" d="M259.486 184.74C256.275 184.582 253.08 184.742 249.901 185.219C247.53 185.255 245.613 186.053 244.15 187.615C224.777 192.492 206.726 200.799 189.995 212.536C188.189 212.189 187.389 211.071 187.599 209.181C199.407 180.75 218.256 158.066 244.15 141.129C254.178 135.016 265.041 132.461 276.738 133.461C293.322 138.985 299.552 150.326 295.429 167.487C291.214 176.867 284.025 182.459 273.863 184.261C269.081 184.739 264.289 184.899 259.486 184.74Z" fill="#1689C8"/>
<path opacity="0.051" fill-rule="evenodd" clip-rule="evenodd" d="M7.40234 172.281C8.36083 172.6 8.99985 173.24 9.31932 174.198C8.04137 174.198 7.40234 173.559 7.40234 172.281Z" fill="#3E615F"/>
<path opacity="0.204" fill-rule="evenodd" clip-rule="evenodd" d="M259.486 184.739C254.496 185.689 249.385 186.648 244.15 187.614C245.613 186.052 247.53 185.253 249.901 185.218C253.081 184.741 256.275 184.581 259.486 184.739Z" fill="#3888A0"/>
</svg>
