<svg width="306" height="250" viewBox="0 0 306 250" fill="none" xmlns="http://www.w3.org/2000/svg">
<path d="M236.59 81.4657H207.828C207.559 87.5789 207.02 93.4766 207.155 99.3205C207.397 119.976 204.004 141.035 193.232 158.944C192.505 160.075 190.539 160.533 189.354 161.287C188.538 159.994 187.895 158.6 187.442 157.14C187.254 155.556 187.254 153.956 187.442 152.373C188.816 129.24 190.566 106.161 191.724 83.0277L165.332 86.6094C168.187 95.2271 171.284 103.656 173.788 112.247C195.683 185.282 113.222 239.035 48.2933 236.557C39.0835 236.884 29.982 234.485 22.13 229.661C14.278 224.837 8.02486 217.802 4.15459 209.438C-10.6301 178.495 17.0811 143.351 39.6487 124.096C63.5628 103.306 91.8396 91.4568 122.109 83.7009L135.574 80.1461C135.956 79.9862 136.325 79.7971 136.678 79.5806C125.529 66.5733 114.569 53.5121 104.631 39.6161C101.826 35.4282 99.7076 30.8188 98.3567 25.9624C94.1017 11.5817 102.262 0.540276 117.208 0.028601C131.535 -0.456144 143.573 5.25307 153.968 14.7056C156.978 17.6094 159.828 20.675 162.505 23.8888C163.922 25.4323 164.959 27.2853 165.534 29.3003C166.109 31.3153 166.206 33.4367 165.817 35.4958C165.386 38.5389 164.147 39.2121 161.562 39.0506C155.18 38.5927 149.255 37.1385 144.542 31.4024L151.113 28.4131C145.162 21.1689 137.244 17.641 128.869 14.948C126.576 14.0326 124.145 13.5136 121.678 13.4129C119.338 13.312 117.034 14.0258 115.161 15.4327C114.128 16.5286 113.517 17.9561 113.438 19.4605C113.359 20.9649 113.817 22.4484 114.73 23.6464C118.824 29.9212 122.594 36.4922 127.226 42.363C135.305 52.6773 144.192 62.5337 152.675 72.6057C153.831 74.1261 155.39 75.2926 157.175 75.9732C158.959 76.6537 160.899 76.8212 162.774 76.4567C171.176 75.2718 179.632 74.2484 188.088 73.5752C191.939 73.252 192.693 71.3399 192.909 68.1891C193.851 52.8119 194.821 37.4347 196.006 22.0845C196.234 18.9098 197.075 15.8094 198.483 12.9551C201.742 7.56908 208.394 8.53857 208.502 15.4596C208.502 33.8799 208.959 52.1387 208.852 70.5859H237.128C238.286 51.7347 238.663 33.6106 239.821 14.921C239.982 13.4858 240.651 12.1557 241.709 11.1723C242.766 10.1889 244.141 9.61748 245.585 9.56192C248.574 9.34647 249.22 12.0395 249.516 14.0862C250.809 22.9732 252.209 31.8871 252.775 40.828C253.34 50.8999 252.775 60.9987 252.775 71.2053C267.371 75.2179 281.671 79.2844 296.16 83.27C297.958 83.7322 299.636 84.5748 301.081 85.7408C302.526 86.9069 303.704 88.3694 304.535 90.0295C306.285 92.9919 304.885 95.4156 301.357 95.4156C299.765 95.2955 298.192 94.9881 296.671 94.5L256.276 83.9433C255.118 83.6471 253.906 83.5663 252.102 83.27C250.055 112.597 248.089 141.655 246.015 171.143L255.279 171.655C250.836 182.912 246.743 193.549 242.38 203.971C241.841 205.264 239.525 207.042 238.69 206.665C236.453 205.868 234.484 204.459 233.008 202.598C232.133 200.848 231.602 198.947 231.446 196.997C228.538 184.878 230.153 172.759 231.069 160.587C233.008 134.33 235.028 107.938 236.59 81.4657ZM161.185 138.019C160.942 122.044 156.21 106.46 147.531 93.0457C147.052 91.9012 146.174 90.9698 145.059 90.4249C143.944 89.88 142.67 89.7586 141.472 90.0834C113.653 96.5736 86.4266 104.383 62.2701 120.461C40.4835 133.926 2.26947 174.483 14.3073 202.033C21.6323 219.887 42.8803 226.27 57.6381 224.331C66.2994 223.137 74.8663 221.337 83.2757 218.945C120.574 208.657 160.835 180.434 161.185 138.019Z" fill="#D91167"/>
<path d="M187.469 217.975C191.724 214.151 195.548 209.492 201.526 209.115C202.421 208.979 203.336 209.079 204.18 209.404C205.024 209.73 205.769 210.271 206.34 210.972C206.912 211.674 207.29 212.513 207.437 213.406C207.585 214.299 207.497 215.215 207.182 216.063C204.489 229.125 197.002 239.573 187.873 248.945C186.338 250.534 184.91 250.211 183.429 248.757C175.363 241.463 169.26 232.258 165.682 221.988C164.012 216.602 164.847 213.209 168.16 210.596C174.488 205.614 183.618 211.674 187.469 217.975Z" fill="#D91167"/>
</svg>
